<svg xmlns="http://www.w3.org/2000/svg" width="960" height="480"><rect width="960" height="480" fill="#091322"/><circle cx="300" cy="159" r="1" fill="#93a6b8"/><circle cx="286" cy="106" r="2" fill="#93a6b8"/><circle cx="851" cy="298" r="2" fill="#93a6b8"/><circle cx="133" cy="107" r="1" fill="#93a6b8"/><circle cx="394" cy="337" r="1" fill="#93a6b8"/><circle cx="637" cy="467" r="1" fill="#93a6b8"/><circle cx="680" cy="200" r="1" fill="#93a6b8"/><circle cx="240" cy="387" r="1" fill="#93a6b8"/><circle cx="194" cy="461" r="1" fill="#93a6b8"/><circle cx="220" cy="367" r="2" fill="#93a6b8"/><circle cx="130" cy="10" r="1" fill="#93a6b8"/><circle cx="702" cy="136" r="1" fill="#93a6b8"/><circle cx="937" cy="45" r="2" fill="#93a6b8"/><circle cx="695" cy="451" r="1" fill="#93a6b8"/><circle cx="540" cy="130" r="2" fill="#93a6b8"/><circle cx="940" cy="58" r="2" fill="#93a6b8"/><circle cx="541" cy="316" r="2" fill="#93a6b8"/><circle cx="908" cy="365" r="1" fill="#93a6b8"/><circle cx="395" cy="336" r="2" fill="#93a6b8"/><circle cx="412" cy="377" r="2" fill="#93a6b8"/><circle cx="826" cy="372" r="2" fill="#93a6b8"/><circle cx="140" cy="85" r="1" fill="#93a6b8"/><circle cx="585" cy="295" r="1" fill="#93a6b8"/><circle cx="696" cy="123" r="2" fill="#93a6b8"/><circle cx="308" cy="476" r="2" fill="#93a6b8"/><circle cx="734" cy="464" r="1" fill="#93a6b8"/><circle cx="115" cy="479" r="1" fill="#93a6b8"/><circle cx="191" cy="346" r="1" fill="#93a6b8"/><circle cx="606" cy="53" r="1" fill="#93a6b8"/><circle cx="400" cy="61" r="1" fill="#93a6b8"/><circle cx="244" cy="69" r="2" fill="#93a6b8"/><circle cx="294" cy="432" r="1" fill="#93a6b8"/><circle cx="37" cy="329" r="1" fill="#93a6b8"/><circle cx="245" cy="77" r="1" fill="#93a6b8"/><circle cx="266" cy="335" r="2" fill="#93a6b8"/><circle cx="559" cy="69" r="1" fill="#93a6b8"/><circle cx="531" cy="332" r="1" fill="#93a6b8"/><circle cx="235" cy="72" r="1" fill="#93a6b8"/><circle cx="157" cy="218" r="2" fill="#93a6b8"/><circle cx="170" cy="347" r="1" fill="#93a6b8"/><circle cx="606" cy="103" r="2" fill="#93a6b8"/><circle cx="361" cy="398" r="1" fill="#93a6b8"/><circle cx="167" cy="151" r="1" fill="#93a6b8"/><circle cx="690" cy="306" r="2" fill="#93a6b8"/><circle cx="397" cy="305" r="2" fill="#93a6b8"/><circle cx="205" cy="310" r="1" fill="#93a6b8"/><circle cx="795" cy="122" r="2" fill="#93a6b8"/><circle cx="685" cy="176" r="1" fill="#93a6b8"/><circle cx="163" cy="234" r="1" fill="#93a6b8"/><circle cx="210" cy="214" r="1" fill="#93a6b8"/><circle cx="309" cy="418" r="2" fill="#93a6b8"/><circle cx="254" cy="15" r="1" fill="#93a6b8"/><circle cx="193" cy="372" r="1" fill="#93a6b8"/><circle cx="213" cy="372" r="1" fill="#93a6b8"/><circle cx="150" cy="147" r="2" fill="#93a6b8"/><circle cx="448" cy="213" r="1" fill="#93a6b8"/><circle cx="668" cy="347" r="1" fill="#93a6b8"/><circle cx="553" cy="178" r="2" fill="#93a6b8"/><circle cx="544" cy="19" r="1" fill="#93a6b8"/><circle cx="28" cy="253" r="1" fill="#93a6b8"/><circle cx="233" cy="319" r="1" fill="#93a6b8"/><circle cx="225" cy="359" r="1" fill="#93a6b8"/><circle cx="156" cy="189" r="2" fill="#93a6b8"/><circle cx="922" cy="197" r="1" fill="#93a6b8"/><circle cx="190" cy="297" r="2" fill="#93a6b8"/><circle cx="367" cy="287" r="2" fill="#93a6b8"/><circle cx="375" cy="320" r="1" fill="#93a6b8"/><circle cx="861" cy="175" r="1" fill="#93a6b8"/><circle cx="127" cy="192" r="1" fill="#93a6b8"/><circle cx="195" cy="352" r="1" fill="#93a6b8"/><circle cx="84" cy="176" r="1" fill="#93a6b8"/><circle cx="924" cy="315" r="2" fill="#93a6b8"/><circle cx="264" cy="434" r="1" fill="#93a6b8"/><circle cx="696" cy="385" r="1" fill="#93a6b8"/><circle cx="273" cy="37" r="2" fill="#93a6b8"/><circle cx="251" cy="234" r="1" fill="#93a6b8"/><circle cx="300" cy="24" r="1" fill="#93a6b8"/><circle cx="669" cy="57" r="2" fill="#93a6b8"/><circle cx="624" cy="358" r="1" fill="#93a6b8"/><circle cx="862" cy="435" r="2" fill="#93a6b8"/><circle cx="259" cy="142" r="1" fill="#93a6b8"/><circle cx="797" cy="256" r="1" fill="#93a6b8"/><circle cx="940" cy="405" r="1" fill="#93a6b8"/><circle cx="128" cy="253" r="1" fill="#93a6b8"/><circle cx="470" cy="371" r="2" fill="#93a6b8"/><circle cx="210" cy="18" r="2" fill="#93a6b8"/><circle cx="800" cy="119" r="1" fill="#93a6b8"/><circle cx="289" cy="423" r="1" fill="#93a6b8"/><circle cx="65" cy="470" r="1" fill="#93a6b8"/><circle cx="146" cy="294" r="1" fill="#93a6b8"/><circle cx="531" cy="353" r="1" fill="#93a6b8"/><circle cx="326" cy="64" r="2" fill="#93a6b8"/><circle cx="256" cy="85" r="2" fill="#93a6b8"/><circle cx="414" cy="293" r="1" fill="#93a6b8"/><circle cx="886" cy="119" r="1" fill="#93a6b8"/><circle cx="710" cy="194" r="135" fill="#793f60" opacity=".7"/><circle cx="755" cy="155" r="125" fill="#091322"/><path d="M0 425L240 320 410 405 570 330 760 414 960 354V480H0Z" fill="#152335"/><rect x="90" y="320" width="40" height="70" fill="#1a3445" stroke="#793f60" stroke-width="1"/><rect x="160" y="240" width="75" height="150" fill="#1a3445" stroke="#793f60" stroke-width="1"/><rect x="250" y="295" width="50" height="95" fill="#1a3445" stroke="#793f60" stroke-width="1"/><rect x="610" y="280" width="45" height="110" fill="#1a3445" stroke="#793f60" stroke-width="1"/><rect x="680" y="200" width="80" height="190" fill="#1a3445" stroke="#793f60" stroke-width="1"/><rect x="790" y="305" width="50" height="85" fill="#1a3445" stroke="#793f60" stroke-width="1"/><path d="M390 228L433 192H537L594 227 537 240H433Z" fill="#355570" stroke="#a4c7d5" stroke-width="2"/><path d="M390 227H343" stroke="#793f60" stroke-width="6"/></svg>
